<svg id="visual" viewBox="0 0 3840 230" width="3840" height="230" xmlns="http://www.w3.org/2000/svg" xmlns:xlink="http://www.w3.org/1999/xlink" version="1.1"><path d="M0 13L49.2 17.5C98.3 22 196.7 31 295.2 32C393.7 33 492.3 26 590.8 28.3C689.3 30.7 787.7 42.3 886.2 46.7C984.7 51 1083.3 48 1181.8 41.8C1280.3 35.7 1378.7 26.3 1477 22.8C1575.3 19.3 1673.7 21.7 1772.2 25.5C1870.7 29.3 1969.3 34.7 2067.8 39.7C2166.3 44.7 2264.7 49.3 2363 47.5C2461.3 45.7 2559.7 37.3 2658.2 30.5C2756.7 23.7 2855.3 18.3 2953.8 18.7C3052.3 19 3150.7 25 3249.2 24.5C3347.7 24 3446.3 17 3544.8 21.2C3643.3 25.3 3741.7 40.7 3790.8 48.3L3840 56L3840 0L3790.8 0C3741.7 0 3643.3 0 3544.8 0C3446.3 0 3347.7 0 3249.2 0C3150.7 0 3052.3 0 2953.8 0C2855.3 0 2756.7 0 2658.2 0C2559.7 0 2461.3 0 2363 0C2264.7 0 2166.3 0 2067.8 0C1969.3 0 1870.7 0 1772.2 0C1673.7 0 1575.3 0 1477 0C1378.7 0 1280.3 0 1181.8 0C1083.3 0 984.7 0 886.2 0C787.7 0 689.3 0 590.8 0C492.3 0 393.7 0 295.2 0C196.7 0 98.3 0 49.2 0L0 0Z" fill="#414141"></path><path d="M0 93L49.2 88.8C98.3 84.7 196.7 76.3 295.2 87.8C393.7 99.3 492.3 130.7 590.8 142.8C689.3 155 787.7 148 886.2 140C984.7 132 1083.3 123 1181.8 107.3C1280.3 91.7 1378.7 69.3 1477 73.8C1575.3 78.3 1673.7 109.7 1772.2 118.8C1870.7 128 1969.3 115 2067.8 115.5C2166.3 116 2264.7 130 2363 135.8C2461.3 141.7 2559.7 139.3 2658.2 142.7C2756.7 146 2855.3 155 2953.8 159.5C3052.3 164 3150.7 164 3249.2 148.7C3347.7 133.3 3446.3 102.7 3544.8 102C3643.3 101.3 3741.7 130.7 3790.8 145.3L3840 160L3840 54L3790.8 46.3C3741.7 38.7 3643.3 23.3 3544.8 19.2C3446.3 15 3347.7 22 3249.2 22.5C3150.7 23 3052.3 17 2953.8 16.7C2855.3 16.3 2756.7 21.7 2658.2 28.5C2559.7 35.3 2461.3 43.7 2363 45.5C2264.7 47.3 2166.3 42.7 2067.8 37.7C1969.3 32.7 1870.7 27.3 1772.2 23.5C1673.7 19.7 1575.3 17.3 1477 20.8C1378.7 24.3 1280.3 33.7 1181.8 39.8C1083.3 46 984.7 49 886.2 44.7C787.7 40.3 689.3 28.7 590.8 26.3C492.3 24 393.7 31 295.2 30C196.7 29 98.3 20 49.2 15.5L0 11Z" fill="#292929"></path><path d="M0 164L49.2 167.5C98.3 171 196.7 178 295.2 183.8C393.7 189.7 492.3 194.3 590.8 190.5C689.3 186.7 787.7 174.3 886.2 167.8C984.7 161.3 1083.3 160.7 1181.8 170.7C1280.3 180.7 1378.7 201.3 1477 200.5C1575.3 199.7 1673.7 177.3 1772.2 173.5C1870.7 169.7 1969.3 184.3 2067.8 190.2C2166.3 196 2264.7 193 2363 189.8C2461.3 186.7 2559.7 183.3 2658.2 187.2C2756.7 191 2855.3 202 2953.8 207.5C3052.3 213 3150.7 213 3249.2 208C3347.7 203 3446.3 193 3544.8 190.3C3643.3 187.7 3741.7 192.3 3790.8 194.7L3840 197L3840 158L3790.8 143.3C3741.7 128.7 3643.3 99.3 3544.8 100C3446.3 100.7 3347.7 131.3 3249.2 146.7C3150.7 162 3052.3 162 2953.8 157.5C2855.3 153 2756.7 144 2658.2 140.7C2559.7 137.3 2461.3 139.7 2363 133.8C2264.7 128 2166.3 114 2067.8 113.5C1969.3 113 1870.7 126 1772.2 116.8C1673.7 107.7 1575.3 76.3 1477 71.8C1378.7 67.3 1280.3 89.7 1181.8 105.3C1083.3 121 984.7 130 886.2 138C787.7 146 689.3 153 590.8 140.8C492.3 128.7 393.7 97.3 295.2 85.8C196.7 74.3 98.3 82.7 49.2 86.8L0 91Z" fill="#1c1c1c"></path><path d="M0 231L49.2 231C98.3 231 196.7 231 295.2 231C393.7 231 492.3 231 590.8 231C689.3 231 787.7 231 886.2 231C984.7 231 1083.3 231 1181.8 231C1280.3 231 1378.7 231 1477 231C1575.3 231 1673.7 231 1772.2 231C1870.7 231 1969.3 231 2067.8 231C2166.3 231 2264.7 231 2363 231C2461.3 231 2559.7 231 2658.2 231C2756.7 231 2855.3 231 2953.8 231C3052.3 231 3150.7 231 3249.2 231C3347.7 231 3446.3 231 3544.8 231C3643.3 231 3741.7 231 3790.8 231L3840 231L3840 195L3790.8 192.7C3741.7 190.3 3643.3 185.7 3544.8 188.3C3446.3 191 3347.7 201 3249.2 206C3150.7 211 3052.3 211 2953.8 205.5C2855.3 200 2756.7 189 2658.2 185.2C2559.7 181.3 2461.3 184.7 2363 187.8C2264.7 191 2166.3 194 2067.8 188.2C1969.3 182.3 1870.7 167.7 1772.2 171.5C1673.7 175.3 1575.3 197.7 1477 198.5C1378.7 199.3 1280.3 178.7 1181.8 168.7C1083.3 158.7 984.7 159.3 886.2 165.8C787.7 172.3 689.3 184.7 590.8 188.5C492.3 192.3 393.7 187.7 295.2 181.8C196.7 176 98.3 169 49.2 165.5L0 162Z" fill="#181818"></path></svg>