<?xml version="1.0" encoding="UTF-8"?><svg id="a" xmlns="http://www.w3.org/2000/svg" viewBox="0 0 891 402.92"><defs><style>.b{fill:#c3b83b;}</style></defs><path class="b" d="M27.97,51.92h47.9v254.17H27.97V51.92Zm21.33,208.02H198.23v46.15H49.29v-46.15Z"/><path class="b" d="M260.37,299.44c-11.71-6.18-20.63-15.18-26.75-27.01-6.12-11.83-9.18-26.07-9.18-42.74v-29.54c0-16.43,3.06-30.5,9.18-42.22s15.03-20.63,26.75-26.75,25.84-9.18,42.39-9.18,30.68,3.06,42.39,9.18,20.63,15.03,26.75,26.75,9.18,25.78,9.18,42.22v30.07c0,16.55-3.06,30.68-9.18,42.39s-15.03,20.66-26.75,26.83c-11.71,6.18-25.84,9.26-42.39,9.26s-30.68-3.09-42.39-9.26Zm64.77-45.36c5.36-5.65,8.04-13.6,8.04-23.86v-30.07c0-10.14-2.68-18-8.04-23.6-5.36-5.59-12.88-8.39-22.55-8.39s-16.99,2.8-22.29,8.39c-5.3,5.59-7.95,13.46-7.95,23.6v30.07c0,10.26,2.62,18.21,7.87,23.86,5.24,5.65,12.7,8.48,22.38,8.48s17.19-2.82,22.55-8.48Z"/><path class="b" d="M447.59,299.44c-9.15-6.18-16.11-15.12-20.89-26.83-4.78-11.71-7.17-25.84-7.17-42.39v-29.02c0-16.66,2.39-30.94,7.17-42.83,4.78-11.89,11.74-20.92,20.89-27.09,9.15-6.18,20.13-9.26,32.95-9.26,9.67,0,18.5,2.88,26.48,8.65,7.98,5.77,14.42,13.96,19.32,24.56l-3.67,40.21c0-6.18-1.05-11.42-3.15-15.73-2.1-4.31-5.16-7.6-9.18-9.88s-8.89-3.41-14.6-3.41c-8.98,0-15.94,3.06-20.89,9.18-4.95,6.12-7.43,14.71-7.43,25.78v28.84c0,10.84,2.47,19.23,7.43,25.17,4.95,5.94,11.91,8.92,20.89,8.92,5.71,0,10.58-1.11,14.6-3.32,4.02-2.21,7.08-5.42,9.18-9.61s3.15-9.26,3.15-15.21l2.45,41.43c-3.73,9.91-9.44,17.57-17.13,22.99s-16.84,8.13-27.44,8.13c-12.82,0-23.8-3.09-32.95-9.26Zm2.8,72.81c-11.36-5.07-20.19-12.21-26.48-21.41l32.16-29.54c4.08,4.43,8.97,7.84,14.68,10.23,5.71,2.39,11.65,3.58,17.83,3.58,10.02,0,18.21-2.74,24.56-8.22,6.35-5.48,9.53-13.05,9.53-22.72V124.64h47.9v176.03c0,16.66-3.18,30.94-9.53,42.83-6.35,11.89-15.62,20.92-27.79,27.09-12.18,6.18-26.89,9.26-44.14,9.26-14.45,0-27.36-2.54-38.72-7.6Z"/><path class="b" d="M615.14,51.92h47.9v47.9h-47.9V51.92Zm0,72.72h47.9v181.45h-47.9V124.64Z"/><path class="b" d="M707.61,124.64h47.9v181.45h-47.9V124.64Zm104.88,71.5c0-8.85-2.54-15.73-7.6-20.63-5.07-4.89-12.27-7.34-21.59-7.34s-15.71,2.48-20.54,7.43c-4.84,4.95-7.25,11.92-7.25,20.89l-3.67-40.21c5.48-11.42,12.03-19.98,19.67-25.7,7.63-5.71,17.22-8.57,28.76-8.57,19.11,0,33.91,6.44,44.4,19.32,10.49,12.88,15.73,31.09,15.73,54.63v110.13h-47.9v-109.95Z"/></svg>