<svg id="Ebene_1" data-name="Ebene 1" xmlns="http://www.w3.org/2000/svg" viewBox="0 0 471.41 171.69"><defs><style>.cls-1{fill:#f4c700;}.cls-2{fill:#212012;}</style></defs><path class="cls-1" d="M1.66,21.76H19.42L29.91,70.89h.25l9.52-49.13H55.79l9.65,48.58h.24l10-48.58H93.94L74.41,103.24H57.69L49.93,66.8q-1.27-6-2.13-11.53h-.25c-1,6.3-1.75,10.52-2.19,12.63l-7.69,35.34H21.19Z"/><path class="cls-1" d="M125,86.09h15Q135.63,105,118.54,105q-10.68,0-16.91-8.12t-6.22-22.4q0-13.3,6.22-21.33a19.88,19.88,0,0,1,16.54-8,21.07,21.07,0,0,1,12,3.87A22.39,22.39,0,0,1,138.5,59.3q2.63,6.41,2.93,20.2H111.82q.38,12.51,7,12.51a5.74,5.74,0,0,0,4-1.65A7,7,0,0,0,125,86.09ZM112.07,69.85H125c-.13-3.94-.67-6.86-1.65-8.75a4.87,4.87,0,0,0-4.64-2.84A5.34,5.34,0,0,0,113.59,61Q112.07,63.76,112.07,69.85Z"/><path class="cls-1" d="M151.8,17.24h17.7V53.86h.31a29.72,29.72,0,0,1,6.07-6.53,12.05,12.05,0,0,1,7.29-2.07q7.46,0,12.46,7.78t5,22.31q0,13.43-4.79,21.6t-12.42,8.18q-7.93,0-13.61-9.15h-.31v7.26H151.8Zm31.25,57.62q0-14-7.14-14-6.41,0-6.41,13.49,0,7.75,1.68,11.32a5.58,5.58,0,0,0,5.34,3.57Q183,89.26,183.05,74.86Z"/><path class="cls-2" d="M213.14,85.11q9.09,5.37,13.12,5.37a5.8,5.8,0,0,0,3.67-1.13,3.34,3.34,0,0,0,1.46-2.71,2.77,2.77,0,0,0-1.22-2.5c-.81-.53-3.87-2-9.15-4.28q-6.36-2.81-9.16-6.62a15.57,15.57,0,0,1-2.81-9.49,17.53,17.53,0,0,1,5.59-13.37q5.58-5.24,14.25-5.24,8.42,0,20.63,6.71l-6.84,12.63q-7.94-4.88-13-4.88-4.4,0-4.39,3.54a3.66,3.66,0,0,0,1.62,3,22.91,22.91,0,0,0,5.89,2.78q8,2.81,11.62,6.71a14,14,0,0,1,3.63,9.89,18.59,18.59,0,0,1-5.73,14Q236.58,105,227.67,105,218,105,207,98.24Z"/><path class="cls-2" d="M261.12,32.13h17.76v15h6.89V61.86h-7v41.38H261.12V61.74H254.4V47.09h6.72Z"/><path class="cls-2" d="M322.76,103.24V95.86h-.24a29.07,29.07,0,0,1-6.26,7,11.5,11.5,0,0,1-7.11,2.26q-8,0-12.76-8.18t-4.76-22.21q0-13.48,4.83-21.49t12.69-8a11.92,11.92,0,0,1,7.14,2.1,27.44,27.44,0,0,1,6.11,6.75h.24v-7H340.4v56.15Zm0-28.38q0-14-6.83-14t-6.9,14q0,14.52,7.14,14.53Q322.76,89.39,322.76,74.86Z"/><path class="cls-2" d="M384.41,86.09v14.65A22.71,22.71,0,0,1,371.65,105q-9.47,0-15.17-8.21t-5.7-22.06q0-13.12,5.86-21.36t15.13-8.24a21.5,21.5,0,0,1,12.76,4.57V64.24a14.21,14.21,0,0,0-6.47-1.89,8.26,8.26,0,0,0-6.9,3.45c-1.75,2.29-2.62,5.36-2.62,9.18q0,6,2.56,9.52a8.19,8.19,0,0,0,7,3.48A14.33,14.33,0,0,0,384.41,86.09Z"/><path class="cls-2" d="M394.84,17.24h17.7V67.11h.31l12.08-20h21.24l-18,25.14,18.37,31H426.09l-13.24-27.4h-.31v27.4h-17.7Z"/><path class="cls-1" d="M3.77,156.17V148a13.37,13.37,0,0,0,6.38,2.21,3.26,3.26,0,0,0,2.37-.83,2.88,2.88,0,0,0,.87-2.2,3.27,3.27,0,0,0-.69-2,13.46,13.46,0,0,0-2.42-2.24,27.27,27.27,0,0,1-6-5.89A10.61,10.61,0,0,1,2.43,131a9.85,9.85,0,0,1,10.31-10.31,16.67,16.67,0,0,1,6.69,1.45V130a13,13,0,0,0-5.77-2,3.54,3.54,0,0,0-2.34.72,2.48,2.48,0,0,0-.85,2q0,2.22,4,5a24,24,0,0,1,4.81,4.6,10.45,10.45,0,0,1,2.44,6.87,9.9,9.9,0,0,1-3.19,7.55,11.39,11.39,0,0,1-8.09,3A15.29,15.29,0,0,1,3.77,156.17Z"/><path class="cls-1" d="M27.53,126.11H35.2v6.46h3V139h-3v17.88H27.53V138.9h-2.9v-6.33h2.9Z"/><path class="cls-1" d="M54.16,156.83v-3.19h-.11a12.58,12.58,0,0,1-2.7,3,5,5,0,0,1-3.07,1q-3.45,0-5.51-3.54t-2.06-9.59c0-3.89.7-7,2.08-9.29s3.22-3.45,5.49-3.45a5.1,5.1,0,0,1,3.08.91A11.66,11.66,0,0,1,54,135.6h.11v-3h7.67v24.26Zm0-12.26c0-4-1-6-2.95-6s-3,2-3,6c0,4.18,1,6.27,3.08,6.27Q54.16,150.84,54.16,144.57Z"/><path class="cls-1" d="M80.79,149.42v6.33a9.81,9.81,0,0,1-5.51,1.84,7.61,7.61,0,0,1-6.55-3.54q-2.48-3.56-2.47-9.53a15.55,15.55,0,0,1,2.53-9.23,7.7,7.7,0,0,1,6.54-3.56,9.29,9.29,0,0,1,5.51,2V140a6.21,6.21,0,0,0-2.79-.82,3.57,3.57,0,0,0-3,1.49,6.39,6.39,0,0,0-1.14,4A6.78,6.78,0,0,0,75,148.73a3.53,3.53,0,0,0,3,1.51A6.28,6.28,0,0,0,80.79,149.42Z"/><path class="cls-1" d="M85.3,119.68h7.64v21.54h.14l5.22-8.65h9.17l-7.78,10.86,7.94,13.4H98.8L93.08,145h-.14v11.84H85.3Z"/><path class="cls-2" d="M111.38,153.27a4.37,4.37,0,0,1,4.37-4.38,4.34,4.34,0,0,1,3.13,1.28,4.12,4.12,0,0,1,1.3,3.05,4.4,4.4,0,1,1-8.8.05Z"/><path class="cls-1" d="M171.56,122h9q3,7.59,4.32,11.71H185q1.35-4.22,4.27-11.71h9.18L189,141.27v15.92h-8.1V141.27Z"/><path class="cls-1" d="M212.54,158.06a11,11,0,0,1-9.73-4.89q-3.34-4.89-3.35-14.12,0-8.52,3.36-13.28A10.84,10.84,0,0,1,212.2,121a11.27,11.27,0,0,1,9.79,4.77q3.39,4.77,3.39,13.63T222,153.17A10.82,10.82,0,0,1,212.54,158.06ZM212.25,129q-4.32,0-4.33,10.15,0,6.54,1.1,8.72a3.44,3.44,0,0,0,3.18,2.19,3.76,3.76,0,0,0,3.44-2.19q1.2-2.17,1.2-8.57Q216.84,129,212.25,129Z"/><path class="cls-1" d="M231.1,122h8.2v24.79a3.94,3.94,0,0,0,.92,2.75,3.54,3.54,0,0,0,5-.06,4.43,4.43,0,0,0,.93-3V122h8.15v23.1a19.18,19.18,0,0,1-1.24,7.57,8.38,8.38,0,0,1-3.65,4.18,14.17,14.17,0,0,1-6.74,1.33q-6.37,0-9-3.27t-2.61-11.05Z"/><path class="cls-1" d="M261.56,122h9.3c3.76,0,6.74,1,8.92,2.9a10,10,0,0,1,3.27,7.89,10.67,10.67,0,0,1-1.24,4.94,8.18,8.18,0,0,1-3.62,3.6l6.38,15.87h-8.43l-6.46-16h-.13v16h-8Zm8,6.8v8.36q5.29-.1,5.29-3.71a4.39,4.39,0,0,0-1.22-3.51A6.61,6.61,0,0,0,269.55,128.79Z"/><path class="cls-2" d="M288.45,153.63a4.24,4.24,0,0,1,1.28-3.08,4.19,4.19,0,0,1,3.1-1.29,4.3,4.3,0,0,1,3.12,1.27,4.14,4.14,0,0,1,1.31,3.05,4.55,4.55,0,0,1-4.43,4.43,4.37,4.37,0,0,1-4.38-4.38Z"/><path class="cls-1" d="M341.7,122h7.68l4.53,21.23H354L358.13,122h7l4.17,21h.1l4.33-21h7.88l-8.44,35.2h-7.22l-3.35-15.74c-.37-1.72-.68-3.38-.92-5h-.11c-.44,2.72-.75,4.54-.95,5.45l-3.32,15.27h-7.12Z"/><path class="cls-1" d="M395,149.78h6.46Q399.57,158,392.2,158a8.73,8.73,0,0,1-7.31-3.51q-2.68-3.51-2.69-9.68,0-5.75,2.69-9.21a8.62,8.62,0,0,1,7.15-3.47,9.17,9.17,0,0,1,5.17,1.67,9.72,9.72,0,0,1,3.61,4.45c.75,1.84,1.18,4.75,1.26,8.72H389.3q.15,5.41,3,5.41a2.5,2.5,0,0,0,1.74-.71A3,3,0,0,0,395,149.78Zm-5.57-7H395a9.24,9.24,0,0,0-.72-3.79,2.11,2.11,0,0,0-2-1.22,2.29,2.29,0,0,0-2.19,1.19A8.24,8.24,0,0,0,389.4,142.77Z"/><path class="cls-1" d="M406.57,120h7.64v15.82h.14A12.83,12.83,0,0,1,417,133a5.2,5.2,0,0,1,3.15-.9c2.14,0,3.94,1.12,5.38,3.36s2.16,5.46,2.16,9.64a18.39,18.39,0,0,1-2.07,9.34q-2.07,3.53-5.36,3.53t-5.88-4h-.14v3.14h-7.64Zm13.5,24.89c0-4-1-6-3.09-6-1.84,0-2.77,1.94-2.77,5.83a12.09,12.09,0,0,0,.73,4.89,2.4,2.4,0,0,0,2.31,1.54Q420.07,151.15,420.07,144.93Z"/><path class="cls-2" d="M431.4,153.63a4.4,4.4,0,0,1,4.38-4.38,4.34,4.34,0,0,1,3.13,1.28,4.13,4.13,0,0,1,1.3,3.05,4.41,4.41,0,1,1-8.81,0Z"/></svg>