<svg id="Ebene_1" data-name="Ebene 1" xmlns="http://www.w3.org/2000/svg" viewBox="0 0 470.97 136.81"><defs><style>.cls-1{fill:#f4c700;}</style></defs><path class="cls-1" d="M8.73,101.71v-19q8.79,5.13,14.77,5.13A7.62,7.62,0,0,0,29,85.94a6.73,6.73,0,0,0,2-5.1,7.45,7.45,0,0,0-1.62-4.58,30.62,30.62,0,0,0-5.59-5.18Q14.23,63.75,9.92,57.43a24.41,24.41,0,0,1-4.3-14.06q0-10.56,6.65-17.22T29.48,19.5A38.37,38.37,0,0,1,45,22.86V41.11q-8.23-4.52-13.36-4.52a8.13,8.13,0,0,0-5.41,1.68,5.72,5.72,0,0,0-2,4.61q0,5.11,9.22,11.53A56.58,56.58,0,0,1,44.59,65.06,24.32,24.32,0,0,1,50.23,81a23,23,0,0,1-7.38,17.49q-7.4,6.93-18.74,6.93A35.1,35.1,0,0,1,8.73,101.71Z"/><path class="cls-1" d="M57.37,21.76H101.5V40.37H88.75v62.87H70V40.37H57.37Z"/><path class="cls-1" d="M167.72,103.24H148.5l-3.11-13.61H125.85l-3.23,13.61H103.76l21.61-81.48h20.75ZM141.85,75q-4.15-18.18-6.23-34.61h-.24q-2.2,16.92-6.17,34.61Z"/><path class="cls-1" d="M217.47,84v19.35a34.68,34.68,0,0,1-10.5,1.89q-16,0-26-12T171,61.49Q171,43.25,181,31.37A32,32,0,0,1,206.48,19.5a36.16,36.16,0,0,1,11,1.59V40.5a31.72,31.72,0,0,0-10-1.77q-7.2,0-12,6.59T190.73,62.1q0,11,4.8,17.37a15.19,15.19,0,0,0,12.78,6.38A28.2,28.2,0,0,0,217.47,84Z"/><path class="cls-1" d="M229.43,21.76h18.49V60.09h.31l17.46-38.33H285.1L266.17,63.38l18.13,39.86H264L248.23,69.37h-.31v33.87H229.43Z"/><path d="M325.62,21.76h18.5v81.48h-18.5Z"/><path d="M356.08,21.76h44.13V40.37H387.45v62.87H368.71V40.37H356.08Z"/></svg>