<svg id="Ebene_1" data-name="Ebene 1" xmlns="http://www.w3.org/2000/svg" viewBox="0 0 795.95 261.8"><defs><style>.cls-1{fill:#f4c700;}.cls-2{fill:none;stroke:#000;stroke-miterlimit:10;}</style></defs><path class="cls-1" d="M689.28,35.3a35,35,0,0,1-35,34.79h-217a35,35,0,0,1-35-34.79A35,35,0,0,1,437.3.5h217A35,35,0,0,1,689.28,35.3Z"/><path class="cls-2" d="M689.28,35.3a35,35,0,0,1-35,34.79h-217a35,35,0,0,1-35-34.79A35,35,0,0,1,437.3.5h217A35,35,0,0,1,689.28,35.3Z"/><path class="cls-1" d="M689.08,226.5a35,35,0,0,1-35,34.8h-217a34.8,34.8,0,1,1,0-69.59h217A35,35,0,0,1,689.08,226.5Z"/><path class="cls-2" d="M689.08,226.5a35,35,0,0,1-35,34.8h-217a34.8,34.8,0,1,1,0-69.59h217A35,35,0,0,1,689.08,226.5Z"/><path class="cls-1" d="M688.42,129.2a35,35,0,0,1-35,34.79h-217a34.8,34.8,0,1,1,0-69.59h217A35,35,0,0,1,688.42,129.2Z"/><path class="cls-2" d="M688.42,129.2a35,35,0,0,1-35,34.79h-217a34.8,34.8,0,1,1,0-69.59h217A35,35,0,0,1,688.42,129.2Z"/><line class="cls-2" x1="0.95" y1="132" x2="310.95" y2="132"/><line class="cls-2" x1="400.95" y1="35" x2="367.95" y2="35"/><line class="cls-2" x1="368.45" y1="234.5" x2="401.45" y2="234.5"/><line class="cls-2" x1="310.95" y1="132" x2="367.95" y2="35"/><path d="M434.47,27.06h5.47l4.95,10,4.4-10h5.24L443.82,51.82h-5.33L442.34,43Z"/><path d="M456.77,35.66a8.78,8.78,0,0,1,2.54-6.5,8.91,8.91,0,0,1,6.53-2.53,8.35,8.35,0,0,1,6.22,2.58,8.77,8.77,0,0,1,2.51,6.37A8.86,8.86,0,0,1,472.06,42a8.47,8.47,0,0,1-6.3,2.56,8.3,8.3,0,0,1-6.62-2.71A9.18,9.18,0,0,1,456.77,35.66Zm12.76,0a4.48,4.48,0,0,0-1.15-3,3.43,3.43,0,0,0-2.66-1.3A3.61,3.61,0,0,0,463,32.54a4.14,4.14,0,0,0-1.14,2.92A4.65,4.65,0,0,0,463,38.63a3.47,3.47,0,0,0,5.39,0A4.36,4.36,0,0,0,469.53,35.66Z"/><path d="M479,27.06h5.21V35.3a4.76,4.76,0,0,0,.91,3,2.73,2.73,0,0,0,2.24,1.19,3,3,0,0,0,2.39-1.15,4.4,4.4,0,0,0,1-2.9V27.06h5.2v10a6.83,6.83,0,0,1-2.43,5.33,8.8,8.8,0,0,1-6,2.15,8.62,8.62,0,0,1-6.14-2.16,7.53,7.53,0,0,1-2.3-5.75Z"/><path d="M505.64,27v2.54h.08a6.82,6.82,0,0,1,1.77-2,3.24,3.24,0,0,1,1.88-.75,4.58,4.58,0,0,1,.94.08v5.6a6.88,6.88,0,0,0-1.26-.12,2.94,2.94,0,0,0-2.46,1.11,4.94,4.94,0,0,0-.87,3.11v7.67h-5.2V27Z"/><path d="M529.74,27.06v2.5h.08a7.9,7.9,0,0,1,2.34-2.19,5.75,5.75,0,0,1,2.91-.7,6.54,6.54,0,0,1,5.25,2.71,10.13,10.13,0,0,1,2.18,6.56A9.17,9.17,0,0,1,540.38,42a6.33,6.33,0,0,1-5,2.53,5.51,5.51,0,0,1-3-.74,10.12,10.12,0,0,1-2.49-2.36h-.08V51.82h-5.2V27.06Zm7.39,8.84A4.2,4.2,0,0,0,536.05,33a3.33,3.33,0,0,0-2.58-1.21A3.23,3.23,0,0,0,531,33a4.25,4.25,0,0,0-1.05,2.91,4.06,4.06,0,0,0,1.1,2.85,3.49,3.49,0,0,0,2.65,1.18,3.2,3.2,0,0,0,2.5-1.12A4.29,4.29,0,0,0,537.13,35.9Z"/><path d="M545.84,20.64a3.21,3.21,0,0,1,6.41,0,3.11,3.11,0,0,1-1,2.27,3.19,3.19,0,0,1-4.52,0A3.1,3.1,0,0,1,545.84,20.64ZM546.5,27h5.13V44.23H546.5Z"/><path d="M569.4,38.27v5.12a11.14,11.14,0,0,1-4.38,1.2A8.88,8.88,0,0,1,558.53,42a8.64,8.64,0,0,1-2.6-6.41,8.91,8.91,0,0,1,2.41-6.4,8.07,8.07,0,0,1,6.12-2.55,11,11,0,0,1,5,1.21v4.84a9.54,9.54,0,0,0-4.1-1.08,3.92,3.92,0,0,0-2.78,6.58,3.67,3.67,0,0,0,2.74,1.05A12,12,0,0,0,569.4,38.27Z"/><path d="M573.47,21.11h5.12V27h2.46v4.7h-2.46V44.23h-5.12V31.72h-2V27h2Z"/><path d="M584.1,27.06h5.2V35.3a4.82,4.82,0,0,0,.91,3,2.74,2.74,0,0,0,2.25,1.19,3,3,0,0,0,2.38-1.15,4.34,4.34,0,0,0,1-2.9V27.06H601v10a6.85,6.85,0,0,1-2.42,5.33,8.82,8.82,0,0,1-6.05,2.15,8.6,8.6,0,0,1-6.14-2.16,7.5,7.5,0,0,1-2.3-5.75Z"/><path d="M610.76,27v2.54h.08a6.71,6.71,0,0,1,1.78-2,3.19,3.19,0,0,1,1.87-.75,4.51,4.51,0,0,1,.94.08v5.6a6.88,6.88,0,0,0-1.26-.12,2.93,2.93,0,0,0-2.45,1.11,4.94,4.94,0,0,0-.88,3.11v7.67h-5.2V27Z"/><path d="M635.57,36.84H623.3a4.13,4.13,0,0,0,1.09,2.71,3.11,3.11,0,0,0,2.31,1,4.17,4.17,0,0,0,3.7-2.14L635.11,40A8.76,8.76,0,0,1,627,44.59a8.63,8.63,0,0,1-6.47-2.46,9.09,9.09,0,0,1-2.4-6.63,8.68,8.68,0,0,1,8.77-8.83,8.19,8.19,0,0,1,6.22,2.68A9.41,9.41,0,0,1,635.57,36ZM623.34,33.4h6.92q-.72-3.22-3.3-3.22a3.43,3.43,0,0,0-3.62,3.22Z"/><path d="M651.84,29.44l-3.48,2.12A4.22,4.22,0,0,0,645.54,30a1.73,1.73,0,0,0-1.1.36,1.08,1.08,0,0,0-.47.88,1.4,1.4,0,0,0,.54,1.22,15.13,15.13,0,0,0,2.84,1.17,10.21,10.21,0,0,1,3.64,2,4.48,4.48,0,0,1,1.33,3.45,4.72,4.72,0,0,1-2,3.81,7.46,7.46,0,0,1-4.8,1.59,7.68,7.68,0,0,1-3.8-1.06,8.9,8.9,0,0,1-3.21-3.24l4.14-1.88c.94,1.61,1.91,2.42,2.91,2.42a1.91,1.91,0,0,0,1.22-.44,1.28,1.28,0,0,0,.54-1,1.2,1.2,0,0,0-.62-1.09,2.11,2.11,0,0,0-.92-.37,6,6,0,0,0-1.44-.56c-3.45-1.12-5.17-2.95-5.17-5.47A4.53,4.53,0,0,1,641,28.13a7.62,7.62,0,0,1,4.84-1.46A8.19,8.19,0,0,1,651.84,29.44Z"/><line class="cls-2" x1="794.95" y1="35" x2="688.45" y2="37"/><line class="cls-2" x1="795.95" y1="130" x2="690.45" y2="131"/><line class="cls-2" x1="790.95" y1="226" x2="689.45" y2="228"/><path d="M444.22,219.14h5.47l4.95,10,4.4-10h5.24l-10.7,24.77h-5.33l3.84-8.82Z"/><path d="M466.53,227.75a8.76,8.76,0,0,1,2.54-6.51,8.87,8.87,0,0,1,6.53-2.52,8.35,8.35,0,0,1,6.21,2.57,9.45,9.45,0,0,1,0,12.83,8.47,8.47,0,0,1-6.29,2.56,8.3,8.3,0,0,1-6.63-2.71A9.17,9.17,0,0,1,466.53,227.75Zm12.75,0a4.45,4.45,0,0,0-1.14-3,3.44,3.44,0,0,0-2.67-1.3,3.58,3.58,0,0,0-2.72,1.22,4.13,4.13,0,0,0-1.14,2.92,4.65,4.65,0,0,0,1.13,3.16,3.48,3.48,0,0,0,5.4,0A4.31,4.31,0,0,0,479.28,227.75Z"/><path d="M488.73,219.14h5.2v8.25a4.77,4.77,0,0,0,.91,3,2.73,2.73,0,0,0,2.25,1.19,3,3,0,0,0,2.38-1.15,4.3,4.3,0,0,0,1-2.89v-8.37h5.2v10a6.85,6.85,0,0,1-2.42,5.34,8.82,8.82,0,0,1-6.05,2.15,8.6,8.6,0,0,1-6.14-2.16,7.53,7.53,0,0,1-2.3-5.75Z"/><path d="M515.39,219.1v2.54h.08a6.83,6.83,0,0,1,1.78-2,3.22,3.22,0,0,1,1.87-.75,5.32,5.32,0,0,1,.94.08v5.61a6.88,6.88,0,0,0-1.26-.12,2.93,2.93,0,0,0-2.45,1.11,4.94,4.94,0,0,0-.88,3.11v7.67h-5.2V219.1Z"/><path d="M539.5,219.14v2.5h.08a7.88,7.88,0,0,1,2.33-2.19,5.8,5.8,0,0,1,2.91-.69,6.54,6.54,0,0,1,5.26,2.7,10.16,10.16,0,0,1,2.17,6.57,9.18,9.18,0,0,1-2.11,6.08,6.35,6.35,0,0,1-5,2.53,5.6,5.6,0,0,1-3-.74,9.92,9.92,0,0,1-2.48-2.36h-.08v10.37h-5.21V219.14Zm7.39,8.85a4.21,4.21,0,0,0-1.09-2.89,3.33,3.33,0,0,0-2.58-1.21,3.2,3.2,0,0,0-2.52,1.19,4.27,4.27,0,0,0-1,2.91,4,4,0,0,0,1.09,2.84A3.47,3.47,0,0,0,543.4,232a3.15,3.15,0,0,0,2.5-1.12A4.2,4.2,0,0,0,546.89,228Z"/><path d="M560.9,219.1v2.54H561a7,7,0,0,1,1.77-2,3.24,3.24,0,0,1,1.87-.75,5.32,5.32,0,0,1,.94.08v5.61a6.72,6.72,0,0,0-1.26-.12,2.94,2.94,0,0,0-2.45,1.11,4.94,4.94,0,0,0-.87,3.11v7.67h-5.21V219.1Z"/><path d="M568.39,227.75a8.76,8.76,0,0,1,2.54-6.51,8.87,8.87,0,0,1,6.53-2.52,8.35,8.35,0,0,1,6.21,2.57,9.45,9.45,0,0,1,0,12.83,8.47,8.47,0,0,1-6.29,2.56,8.3,8.3,0,0,1-6.63-2.71A9.17,9.17,0,0,1,568.39,227.75Zm12.75,0a4.45,4.45,0,0,0-1.14-3,3.44,3.44,0,0,0-2.67-1.3,3.58,3.58,0,0,0-2.72,1.22,4.13,4.13,0,0,0-1.14,2.92,4.65,4.65,0,0,0,1.13,3.16,3.48,3.48,0,0,0,5.4,0A4.31,4.31,0,0,0,581.14,227.75Z"/><path d="M600.16,210.23v4.93a3.8,3.8,0,0,0-2-.78,2.21,2.21,0,0,0-1.76.78,3,3,0,0,0-.67,2v1.92h4.39v4.67h-4.43v12.55h-5.12V223.77h-1.52V219.1h1.52V217q0-4.38,1.86-5.94a6.63,6.63,0,0,1,4.36-1.55A7.21,7.21,0,0,1,600.16,210.23Z"/><path d="M603,212.73A3.23,3.23,0,1,1,604,215,3.07,3.07,0,0,1,603,212.73Zm.66,6.37h5.12v17.22h-5.12Z"/><path d="M614.33,209.59h5.13v26.73h-5.13Z"/><path d="M640.78,228.93H628.5a4.09,4.09,0,0,0,1.1,2.7,3.08,3.08,0,0,0,2.31,1.05,4.16,4.16,0,0,0,3.7-2.15l4.71,1.56a8.75,8.75,0,0,1-8.15,4.59,8.63,8.63,0,0,1-6.47-2.46,9.1,9.1,0,0,1-2.4-6.63,8.66,8.66,0,0,1,8.77-8.83,8.14,8.14,0,0,1,6.21,2.67,9.4,9.4,0,0,1,2.5,6.68Zm-12.23-3.44h6.92q-.72-3.23-3.3-3.22a3.43,3.43,0,0,0-3.62,3.22Z"/><path d="M3.46,108.75l2,7.87c.45,1.73.87,3.33,1.16,4.93h.09c.35-1.57.87-3.24,1.38-4.9l2.53-7.9H13l2.4,7.74c.58,1.86,1,3.49,1.38,5.06h.09a48.49,48.49,0,0,1,1.19-5l2.21-7.77h2.78l-5,15.48H15.52l-2.37-7.39a51.34,51.34,0,0,1-1.37-5.09h-.07a43.34,43.34,0,0,1-1.41,5.12l-2.49,7.36H5.25L.58,108.75Z"/><path d="M27.14,117c.06,3.81,2.49,5.38,5.31,5.38a10.11,10.11,0,0,0,4.28-.8l.49,2a12.56,12.56,0,0,1-5.16,1c-4.76,0-7.61-3.13-7.61-7.8s2.75-8.35,7.26-8.35c5.06,0,6.4,4.44,6.4,7.29A9.05,9.05,0,0,1,38,117Zm8.25-2c0-1.79-.73-4.58-3.9-4.58-2.85,0-4.1,2.62-4.32,4.58Z"/><path d="M41.47,124.23c.07-1,.13-2.62.13-4V101.52h2.78v9.72h.07a5.77,5.77,0,0,1,5.28-2.84c3.84,0,6.56,3.2,6.52,7.9,0,5.53-3.48,8.29-6.94,8.29a5.51,5.51,0,0,1-5.18-2.92H44l-.13,2.56Zm2.91-6.2a5.58,5.58,0,0,0,.13,1,4.35,4.35,0,0,0,4.22,3.3c3,0,4.71-2.4,4.71-6,0-3.1-1.6-5.75-4.61-5.75a4.49,4.49,0,0,0-4.29,3.45,5.79,5.79,0,0,0-.16,1.15Z"/><path d="M59.42,121.35a7.37,7.37,0,0,0,3.72,1.12c2,0,3-1,3-2.3s-.8-2.08-2.88-2.85c-2.78-1-4.09-2.53-4.09-4.38,0-2.5,2-4.54,5.34-4.54a7.67,7.67,0,0,1,3.81,1l-.71,2a6,6,0,0,0-3.16-.89c-1.67,0-2.6,1-2.6,2.11s.93,1.85,2.95,2.62c2.69,1,4.06,2.37,4.06,4.67,0,2.72-2.11,4.64-5.79,4.64a8.85,8.85,0,0,1-4.35-1Z"/><path d="M75.87,104.3v4.45h4v2.14h-4v8.35c0,1.92.54,3,2.11,3a6.5,6.5,0,0,0,1.63-.19l.13,2.11a7,7,0,0,1-2.49.38,3.88,3.88,0,0,1-3-1.18c-.8-.83-1.09-2.21-1.09-4v-8.45h-2.4v-2.14h2.4V105Z"/><path d="M91.65,124.23l-.23-2h-.09a5.78,5.78,0,0,1-4.74,2.31,4.42,4.42,0,0,1-4.74-4.45c0-3.75,3.33-5.79,9.32-5.76v-.32c0-1.28-.36-3.58-3.52-3.58a7.69,7.69,0,0,0-4,1.15L83,109.77a9.64,9.64,0,0,1,5.09-1.37c4.74,0,5.89,3.23,5.89,6.33v5.79a20.88,20.88,0,0,0,.26,3.71Zm-.42-7.9c-3.07-.06-6.56.48-6.56,3.49a2.5,2.5,0,0,0,2.66,2.69,3.85,3.85,0,0,0,3.74-2.6,2.74,2.74,0,0,0,.16-.89Z"/><path d="M109.53,123.66a10.39,10.39,0,0,1-4.44.89c-4.68,0-7.72-3.16-7.72-7.9s3.27-8.22,8.32-8.22a9.33,9.33,0,0,1,3.91.8L109,111.4a6.59,6.59,0,0,0-3.27-.73c-3.55,0-5.47,2.62-5.47,5.85,0,3.59,2.31,5.79,5.38,5.79a8,8,0,0,0,3.45-.76Z"/><path d="M115.61,115.85h.07c.38-.54.93-1.22,1.37-1.76l4.55-5.34H125l-6,6.36,6.81,9.12H122.4l-5.35-7.42-1.44,1.6v5.82h-2.78V101.52h2.78Z"/><path d="M127.61,122.57a1.9,1.9,0,0,1,1.92-2,2,2,0,1,1-1.92,2Z"/><path d="M146,123.66a10.48,10.48,0,0,1-4.45.89c-4.67,0-7.71-3.16-7.71-7.9s3.26-8.22,8.32-8.22a9.32,9.32,0,0,1,3.9.8l-.64,2.17a6.58,6.58,0,0,0-3.26-.73c-3.55,0-5.47,2.62-5.47,5.85,0,3.59,2.3,5.79,5.37,5.79a8.06,8.06,0,0,0,3.46-.76Z"/><path d="M149.25,101.52h2.81v9.66h.07a5.17,5.17,0,0,1,2-2,5.81,5.81,0,0,1,2.88-.8c2.08,0,5.41,1.28,5.41,6.62v9.21h-2.82v-8.89c0-2.5-.93-4.61-3.58-4.61a4.05,4.05,0,0,0-3.78,2.82,3.39,3.39,0,0,0-.19,1.34v9.34h-2.81Z"/><path d="M164.64,125.51l8.92-23.19h2.18l-9,23.19Z"/><path d="M179,108.75l3.39,9.15c.35,1,.73,2.24,1,3.17h.06c.29-.93.61-2.12,1-3.24l3.08-9.08h3l-4.22,11c-2,5.31-3.39,8-5.31,9.69a7.64,7.64,0,0,1-3.46,1.83l-.7-2.37a7.47,7.47,0,0,0,2.46-1.38,8.51,8.51,0,0,0,2.37-3.13,2,2,0,0,0,.22-.68,2.34,2.34,0,0,0-.19-.73l-5.73-14.27Z"/><path d="M206.75,116.36c0,5.73-4,8.23-7.71,8.23-4.19,0-7.43-3.08-7.43-8,0-5.18,3.4-8.22,7.68-8.22C203.74,108.4,206.75,111.63,206.75,116.36Zm-12.29.16c0,3.39,1.95,6,4.7,6s4.71-2.52,4.71-6c0-2.63-1.31-5.95-4.64-5.95S194.46,113.58,194.46,116.52Z"/><path d="M223.26,120c0,1.6,0,3,.13,4.22h-2.5l-.16-2.52h-.06a5.85,5.85,0,0,1-5.12,2.88c-2.43,0-5.35-1.35-5.35-6.79v-9H213v8.57c0,3,.9,4.93,3.46,4.93a4.07,4.07,0,0,0,3.71-2.56,4.14,4.14,0,0,0,.25-1.44v-9.5h2.82Z"/><path d="M227.93,113.58c0-1.83,0-3.39-.13-4.83h2.47l.09,3h.13a4.65,4.65,0,0,1,4.29-3.39,3.26,3.26,0,0,1,.8.09v2.66a3.93,3.93,0,0,0-1-.1c-2,0-3.39,1.51-3.78,3.62a8.36,8.36,0,0,0-.12,1.31v8.25h-2.79Z"/><path d="M238.52,112.94c0-1.6,0-2.91-.12-4.19h2.49l.16,2.56h.07a5.67,5.67,0,0,1,5.12-2.91c2.14,0,5.47,1.28,5.47,6.59v9.24h-2.82v-8.92c0-2.5-.93-4.58-3.58-4.58a4.12,4.12,0,0,0-4,4.19v9.31h-2.82Z"/><path d="M264.86,124.23l-.22-2h-.1a5.76,5.76,0,0,1-4.74,2.31,4.41,4.41,0,0,1-4.73-4.45c0-3.75,3.33-5.79,9.31-5.76v-.32c0-1.28-.35-3.58-3.52-3.58a7.66,7.66,0,0,0-4,1.15l-.64-1.86a9.62,9.62,0,0,1,5.09-1.37c4.73,0,5.88,3.23,5.88,6.33v5.79a21.87,21.87,0,0,0,.26,3.71Zm-.42-7.9c-3.07-.06-6.56.48-6.56,3.49a2.5,2.5,0,0,0,2.66,2.69,3.83,3.83,0,0,0,3.74-2.6,2.74,2.74,0,0,0,.16-.89Z"/><path d="M271.71,112.94c0-1.6,0-2.91-.13-4.19H274l.13,2.49h.1a5.33,5.33,0,0,1,4.86-2.84,4.58,4.58,0,0,1,4.38,3.1h.07a6.45,6.45,0,0,1,1.73-2,5.28,5.28,0,0,1,3.42-1.08c2,0,5.09,1.34,5.09,6.71v9.12h-2.75v-8.76c0-3-1.09-4.77-3.36-4.77a3.64,3.64,0,0,0-3.33,2.56,4.57,4.57,0,0,0-.23,1.41v9.56H281.4V115c0-2.46-1.08-4.25-3.23-4.25a4.19,4.19,0,0,0-3.71,4.19v9.34h-2.75Z"/><path d="M300,117c.07,3.81,2.5,5.38,5.32,5.38a10.11,10.11,0,0,0,4.28-.8l.48,2a12.47,12.47,0,0,1-5.15,1c-4.77,0-7.61-3.13-7.61-7.8s2.75-8.35,7.26-8.35c5.06,0,6.4,4.44,6.4,7.29a9.05,9.05,0,0,1-.1,1.31Zm8.26-2c0-1.79-.74-4.58-3.9-4.58-2.85,0-4.1,2.62-4.32,4.58Z"/><line class="cls-2" x1="368.95" y1="235" x2="310.95" y2="132"/><line class="cls-2" x1="401.95" y1="132" x2="310.95" y2="132"/><path d="M441.28,116.8h5.47l4.95,10,4.4-10h5.24l-10.71,24.77h-5.32l3.84-8.82Z"/><path d="M463.58,125.41a8.75,8.75,0,0,1,2.55-6.5,8.87,8.87,0,0,1,6.52-2.53,8.35,8.35,0,0,1,6.22,2.58,8.77,8.77,0,0,1,2.51,6.37,8.86,8.86,0,0,1-2.51,6.45,8.45,8.45,0,0,1-6.3,2.56,8.3,8.3,0,0,1-6.62-2.71A9.18,9.18,0,0,1,463.58,125.41Zm12.76,0a4.47,4.47,0,0,0-1.14-3,3.44,3.44,0,0,0-2.67-1.3,3.61,3.61,0,0,0-2.72,1.22,4.13,4.13,0,0,0-1.14,2.92,4.7,4.7,0,0,0,1.13,3.17,3.48,3.48,0,0,0,5.4,0A4.36,4.36,0,0,0,476.34,125.41Z"/><path d="M485.79,116.8H491v8.25a4.76,4.76,0,0,0,.91,3,2.74,2.74,0,0,0,2.25,1.19,3,3,0,0,0,2.38-1.15,4.34,4.34,0,0,0,1-2.9V116.8h5.2v10a6.83,6.83,0,0,1-2.43,5.34,8.79,8.79,0,0,1-6,2.15,8.6,8.6,0,0,1-6.14-2.16,7.5,7.5,0,0,1-2.3-5.75Z"/><path d="M512.45,116.76v2.55h.08a6.71,6.71,0,0,1,1.78-2,3.15,3.15,0,0,1,1.87-.76,5.4,5.4,0,0,1,.94.08v5.61a6.88,6.88,0,0,0-1.26-.12,3,3,0,0,0-2.46,1.11,4.94,4.94,0,0,0-.87,3.11V134h-5.2V116.76Z"/><path d="M544,119.19l-3.48,2.12a4.22,4.22,0,0,0-2.82-1.52,1.73,1.73,0,0,0-1.1.36,1.07,1.07,0,0,0-.46.88,1.39,1.39,0,0,0,.53,1.22,15.13,15.13,0,0,0,2.84,1.17,10.21,10.21,0,0,1,3.64,2,4.48,4.48,0,0,1,1.33,3.45,4.72,4.72,0,0,1-2,3.81,7.46,7.46,0,0,1-4.8,1.59,7.68,7.68,0,0,1-3.8-1.06,8.9,8.9,0,0,1-3.21-3.24l4.14-1.88c.94,1.61,1.91,2.42,2.91,2.42a1.91,1.91,0,0,0,1.22-.44,1.28,1.28,0,0,0,.54-1,1.2,1.2,0,0,0-.62-1.09,2.11,2.11,0,0,0-.92-.37,6,6,0,0,0-1.44-.56c-3.45-1.12-5.17-3-5.17-5.47a4.53,4.53,0,0,1,1.85-3.73,7.62,7.62,0,0,1,4.84-1.46A8.19,8.19,0,0,1,544,119.19Z"/><path d="M548.81,110.86h5.12v5.9h2.47v4.71h-2.47V134h-5.12V121.47h-2v-4.71h2Z"/><path d="M559,125.41a8.78,8.78,0,0,1,2.54-6.5,8.9,8.9,0,0,1,6.53-2.53,8.31,8.31,0,0,1,6.21,2.58,8.74,8.74,0,0,1,2.52,6.37,8.83,8.83,0,0,1-2.52,6.45,8.43,8.43,0,0,1-6.29,2.56,8.3,8.3,0,0,1-6.63-2.71A9.17,9.17,0,0,1,559,125.41Zm12.75,0a4.47,4.47,0,0,0-1.14-3,3.44,3.44,0,0,0-2.66-1.3,3.63,3.63,0,0,0-2.73,1.22,4.13,4.13,0,0,0-1.14,2.92,4.7,4.7,0,0,0,1.13,3.17,3.48,3.48,0,0,0,5.4,0A4.36,4.36,0,0,0,571.75,125.41Z"/><path d="M586.1,116.76v2.55h.08a6.71,6.71,0,0,1,1.78-2,3.15,3.15,0,0,1,1.87-.76,5.4,5.4,0,0,1,.94.08v5.61a6.88,6.88,0,0,0-1.26-.12,3,3,0,0,0-2.46,1.11,4.94,4.94,0,0,0-.87,3.11V134H581V116.76Z"/><path d="M593.63,110.39a3.2,3.2,0,0,1,5.47-2.25,3.2,3.2,0,0,1-2.27,5.46,3.21,3.21,0,0,1-3.2-3.21Zm.66,6.37h5.13V134h-5.13Z"/><path d="M620.74,126.59H608.46a4.19,4.19,0,0,0,1.1,2.71,3.11,3.11,0,0,0,2.31,1,4.17,4.17,0,0,0,3.7-2.14l4.71,1.56a8.76,8.76,0,0,1-8.15,4.58,8.63,8.63,0,0,1-6.47-2.46,9.09,9.09,0,0,1-2.4-6.63,8.68,8.68,0,0,1,8.77-8.83,8.15,8.15,0,0,1,6.21,2.68,9.36,9.36,0,0,1,2.5,6.67Zm-12.23-3.44h6.92q-.72-3.23-3.3-3.22a3.43,3.43,0,0,0-3.62,3.22Z"/><path d="M637,119.19l-3.48,2.12a4.24,4.24,0,0,0-2.82-1.52,1.73,1.73,0,0,0-1.1.36,1.08,1.08,0,0,0-.47.88,1.4,1.4,0,0,0,.54,1.22,15.13,15.13,0,0,0,2.84,1.17,10.21,10.21,0,0,1,3.64,2,4.48,4.48,0,0,1,1.33,3.45,4.72,4.72,0,0,1-2,3.81,7.48,7.48,0,0,1-4.8,1.59,7.68,7.68,0,0,1-3.8-1.06,8.9,8.9,0,0,1-3.21-3.24l4.14-1.88c.94,1.61,1.91,2.42,2.91,2.42a1.91,1.91,0,0,0,1.22-.44,1.28,1.28,0,0,0,.54-1,1.2,1.2,0,0,0-.62-1.09,2.11,2.11,0,0,0-.92-.37,6,6,0,0,0-1.44-.56c-3.45-1.12-5.17-3-5.17-5.47a4.53,4.53,0,0,1,1.85-3.73,7.62,7.62,0,0,1,4.84-1.46A8.19,8.19,0,0,1,637,119.19Z"/></svg>